<?xml version="1.0" encoding="UTF-8"?>
<svg xmlns="http://www.w3.org/2000/svg" xmlns:xlink="http://www.w3.org/1999/xlink" width="300pt" height="149.999998pt" viewBox="0 0 300 149.999998" version="1.2">
<defs>
<clipPath id="clip1">
  <path d="M 82.230469 77.222656 L 204.734375 77.222656 L 204.734375 141.214844 L 82.230469 141.214844 Z M 82.230469 77.222656 "/>
</clipPath>
<clipPath id="clip2">
  <path d="M 208 101 L 270 101 L 270 139 L 208 139 Z M 208 101 "/>
</clipPath>
<clipPath id="clip3">
  <path d="M 262.6875 92.804688 L 271.382812 127.070312 L 212.902344 141.914062 L 204.203125 107.652344 Z M 262.6875 92.804688 "/>
</clipPath>
<clipPath id="clip4">
  <path d="M 262.6875 92.804688 L 271.382812 127.070312 L 212.902344 141.914062 L 204.203125 107.652344 Z M 262.6875 92.804688 "/>
</clipPath>
<clipPath id="clip5">
  <path d="M 208 106 L 259 106 L 259 135 L 208 135 Z M 208 106 "/>
</clipPath>
<clipPath id="clip6">
  <path d="M 262.6875 92.804688 L 271.382812 127.070312 L 212.902344 141.914062 L 204.203125 107.652344 Z M 262.6875 92.804688 "/>
</clipPath>
<clipPath id="clip7">
  <path d="M 262.6875 92.804688 L 271.382812 127.070312 L 212.902344 141.914062 L 204.203125 107.652344 Z M 262.6875 92.804688 "/>
</clipPath>
<clipPath id="clip8">
  <path d="M 209 115 L 235 115 L 235 131 L 209 131 Z M 209 115 "/>
</clipPath>
<clipPath id="clip9">
  <path d="M 262.6875 92.804688 L 271.382812 127.070312 L 212.902344 141.914062 L 204.203125 107.652344 Z M 262.6875 92.804688 "/>
</clipPath>
<clipPath id="clip10">
  <path d="M 262.6875 92.804688 L 271.382812 127.070312 L 212.902344 141.914062 L 204.203125 107.652344 Z M 262.6875 92.804688 "/>
</clipPath>
<clipPath id="clip11">
  <path d="M 177 45 L 235 45 L 235 87 L 177 87 Z M 177 45 "/>
</clipPath>
<clipPath id="clip12">
  <path d="M 216.132812 27.746094 L 238.984375 54.71875 L 192.945312 93.71875 L 170.097656 66.75 Z M 216.132812 27.746094 "/>
</clipPath>
<clipPath id="clip13">
  <path d="M 216.132812 27.746094 L 238.984375 54.71875 L 192.945312 93.71875 L 170.097656 66.75 Z M 216.132812 27.746094 "/>
</clipPath>
<clipPath id="clip14">
  <path d="M 178 51 L 224 51 L 224 85 L 178 85 Z M 178 51 "/>
</clipPath>
<clipPath id="clip15">
  <path d="M 216.132812 27.746094 L 238.984375 54.71875 L 192.945312 93.71875 L 170.097656 66.75 Z M 216.132812 27.746094 "/>
</clipPath>
<clipPath id="clip16">
  <path d="M 216.132812 27.746094 L 238.984375 54.71875 L 192.945312 93.71875 L 170.097656 66.75 Z M 216.132812 27.746094 "/>
</clipPath>
<clipPath id="clip17">
  <path d="M 180 65 L 204 65 L 204 83 L 180 83 Z M 180 65 "/>
</clipPath>
<clipPath id="clip18">
  <path d="M 216.132812 27.746094 L 238.984375 54.71875 L 192.945312 93.71875 L 170.097656 66.75 Z M 216.132812 27.746094 "/>
</clipPath>
<clipPath id="clip19">
  <path d="M 216.132812 27.746094 L 238.984375 54.71875 L 192.945312 93.71875 L 170.097656 66.75 Z M 216.132812 27.746094 "/>
</clipPath>
<clipPath id="clip20">
  <path d="M 125.738281 8.195312 L 161.085938 8.195312 L 161.085938 68.53125 L 125.738281 68.53125 Z M 125.738281 8.195312 "/>
</clipPath>
<clipPath id="clip21">
  <path d="M 130 17 L 157 17 L 157 68.53125 L 130 68.53125 Z M 130 17 "/>
</clipPath>
<clipPath id="clip22">
  <path d="M 61 33 L 106 33 L 106 87 L 61 87 Z M 61 33 "/>
</clipPath>
<clipPath id="clip23">
  <path d="M 43.71875 55.019531 L 66.328125 27.847656 L 112.710938 66.4375 L 90.101562 93.613281 Z M 43.71875 55.019531 "/>
</clipPath>
<clipPath id="clip24">
  <path d="M 43.71875 55.019531 L 66.328125 27.847656 L 112.710938 66.4375 L 90.101562 93.613281 Z M 43.71875 55.019531 "/>
</clipPath>
<clipPath id="clip25">
  <path d="M 65 43 L 105 43 L 105 85 L 65 85 Z M 65 43 "/>
</clipPath>
<clipPath id="clip26">
  <path d="M 43.71875 55.019531 L 66.328125 27.847656 L 112.710938 66.4375 L 90.101562 93.613281 Z M 43.71875 55.019531 "/>
</clipPath>
<clipPath id="clip27">
  <path d="M 43.71875 55.019531 L 66.328125 27.847656 L 112.710938 66.4375 L 90.101562 93.613281 Z M 43.71875 55.019531 "/>
</clipPath>
<clipPath id="clip28">
  <path d="M 84 60 L 103 60 L 103 82 L 84 82 Z M 84 60 "/>
</clipPath>
<clipPath id="clip29">
  <path d="M 43.71875 55.019531 L 66.328125 27.847656 L 112.710938 66.4375 L 90.101562 93.613281 Z M 43.71875 55.019531 "/>
</clipPath>
<clipPath id="clip30">
  <path d="M 43.71875 55.019531 L 66.328125 27.847656 L 112.710938 66.4375 L 90.101562 93.613281 Z M 43.71875 55.019531 "/>
</clipPath>
<clipPath id="clip31">
  <path d="M 21 99 L 79 99 L 79 138 L 21 138 Z M 21 99 "/>
</clipPath>
<clipPath id="clip32">
  <path d="M 15 126.113281 L 23.664062 91.84375 L 82.160156 106.632812 L 73.496094 140.902344 Z M 15 126.113281 "/>
</clipPath>
<clipPath id="clip33">
  <path d="M 15 126.113281 L 23.664062 91.84375 L 82.160156 106.632812 L 73.496094 140.902344 Z M 15 126.113281 "/>
</clipPath>
<clipPath id="clip34">
  <path d="M 29 106 L 79 106 L 79 134 L 29 134 Z M 29 106 "/>
</clipPath>
<clipPath id="clip35">
  <path d="M 15 126.113281 L 23.664062 91.84375 L 82.160156 106.632812 L 73.496094 140.902344 Z M 15 126.113281 "/>
</clipPath>
<clipPath id="clip36">
  <path d="M 15 126.113281 L 23.664062 91.84375 L 82.160156 106.632812 L 73.496094 140.902344 Z M 15 126.113281 "/>
</clipPath>
<clipPath id="clip37">
  <path d="M 54 113 L 78 113 L 78 129 L 54 129 Z M 54 113 "/>
</clipPath>
<clipPath id="clip38">
  <path d="M 15 126.113281 L 23.664062 91.84375 L 82.160156 106.632812 L 73.496094 140.902344 Z M 15 126.113281 "/>
</clipPath>
<clipPath id="clip39">
  <path d="M 15 126.113281 L 23.664062 91.84375 L 82.160156 106.632812 L 73.496094 140.902344 Z M 15 126.113281 "/>
</clipPath>
</defs>
<g id="surface1">
<g clip-path="url(#clip1)" clip-rule="nonzero">
<path style=" stroke:none;fill-rule:nonzero;fill:rgb(0%,0%,0%);fill-opacity:1;" d="M 202.503906 141.507812 L 84.753906 141.507812 C 84.410156 141.511719 84.078125 141.449219 83.761719 141.320312 C 83.441406 141.1875 83.160156 141 82.917969 140.757812 C 82.675781 140.511719 82.488281 140.230469 82.359375 139.910156 C 82.226562 139.59375 82.164062 139.261719 82.167969 138.914062 C 82.167969 136.894531 82.265625 134.878906 82.464844 132.867188 C 82.664062 130.855469 82.957031 128.859375 83.351562 126.875 C 83.742188 124.894531 84.234375 122.9375 84.816406 121.003906 C 85.402344 119.070312 86.078125 117.167969 86.851562 115.300781 C 87.621094 113.433594 88.480469 111.609375 89.429688 109.828125 C 90.378906 108.046875 91.414062 106.3125 92.53125 104.632812 C 93.648438 102.953125 94.847656 101.332031 96.125 99.769531 C 97.402344 98.207031 98.75 96.714844 100.175781 95.285156 C 101.597656 93.855469 103.085938 92.5 104.644531 91.21875 C 106.199219 89.9375 107.8125 88.734375 109.488281 87.613281 C 111.160156 86.488281 112.882812 85.453125 114.660156 84.5 C 116.433594 83.546875 118.25 82.683594 120.109375 81.910156 C 121.96875 81.136719 123.863281 80.457031 125.789062 79.871094 C 127.714844 79.285156 129.664062 78.792969 131.636719 78.398438 C 133.609375 78.003906 135.597656 77.710938 137.601562 77.511719 C 139.605469 77.3125 141.613281 77.214844 143.625 77.214844 C 145.636719 77.214844 147.644531 77.3125 149.648438 77.511719 C 151.648438 77.710938 153.636719 78.003906 155.613281 78.398438 C 157.585938 78.792969 159.535156 79.285156 161.460938 79.871094 C 163.386719 80.457031 165.28125 81.136719 167.140625 81.910156 C 168.996094 82.683594 170.816406 83.546875 172.589844 84.5 C 174.363281 85.453125 176.089844 86.488281 177.761719 87.613281 C 179.4375 88.734375 181.050781 89.9375 182.605469 91.21875 C 184.160156 92.5 185.652344 93.855469 187.074219 95.285156 C 188.496094 96.714844 189.847656 98.207031 191.125 99.769531 C 192.402344 101.332031 193.597656 102.953125 194.71875 104.632812 C 195.835938 106.3125 196.871094 108.046875 197.820312 109.828125 C 198.769531 111.609375 199.628906 113.433594 200.398438 115.300781 C 201.167969 117.167969 201.847656 119.070312 202.429688 121.003906 C 203.015625 122.9375 203.503906 124.894531 203.898438 126.875 C 204.292969 128.859375 204.585938 130.855469 204.785156 132.867188 C 204.984375 134.878906 205.082031 136.894531 205.082031 138.914062 C 205.085938 139.257812 205.019531 139.589844 204.890625 139.910156 C 204.761719 140.226562 204.574219 140.507812 204.332031 140.75 C 204.089844 140.996094 203.8125 141.183594 203.496094 141.3125 C 203.179688 141.445312 202.847656 141.511719 202.503906 141.507812 Z M 202.503906 141.507812 "/>
</g>
<g clip-path="url(#clip2)" clip-rule="nonzero">
<g clip-path="url(#clip3)" clip-rule="nonzero">
<g clip-path="url(#clip4)" clip-rule="nonzero">
<path style=" stroke:none;fill-rule:nonzero;fill:rgb(0%,0%,0%);fill-opacity:1;" d="M 229.925781 137.519531 C 231.195312 137.054688 232.328125 136.304688 233.570312 135.773438 C 235.097656 135.117188 236.785156 134.945312 238.28125 134.238281 C 238.003906 133.375 237.128906 132.867188 236.378906 132.425781 C 241.402344 129 244.828125 123.105469 250.765625 121.210938 C 256.699219 119.320312 263.371094 119.289062 269.523438 119.769531 C 265.492188 119.039062 258.078125 112.304688 252.921875 109.910156 C 247.648438 107.460938 241.683594 107.074219 236.128906 108.699219 C 237.371094 107.40625 238.316406 106.515625 239.058594 104.84375 C 239.5 103.84375 240.320312 103.265625 240.253906 101.773438 C 239.8125 103.910156 234.515625 103.34375 233.078125 103.234375 C 229.660156 102.972656 226.167969 102.085938 222.769531 102.992188 C 217.996094 104.265625 213.210938 106.128906 210.621094 110.617188 C 208.148438 114.910156 207.472656 119.777344 208.699219 124.605469 C 210.453125 131.511719 215.953125 137.058594 223.09375 137.996094 C 225.082031 138.261719 227.125 138.234375 229.082031 137.773438 C 229.371094 137.707031 229.652344 137.621094 229.925781 137.519531 "/>
</g>
</g>
</g>
<g clip-path="url(#clip5)" clip-rule="nonzero">
<g clip-path="url(#clip6)" clip-rule="nonzero">
<g clip-path="url(#clip7)" clip-rule="nonzero">
<path style=" stroke:none;fill-rule:nonzero;fill:rgb(0%,0%,0%);fill-opacity:1;" d="M 226.789062 133.574219 C 227.820312 133.136719 228.738281 132.492188 229.75 132.003906 C 230.992188 131.402344 232.378906 131.144531 233.597656 130.507812 C 233.347656 129.886719 232.613281 129.574219 231.984375 129.300781 C 236.042969 126.375 238.722656 121.730469 243.574219 119.878906 C 248.417969 118.027344 253.921875 117.507812 259 117.40625 C 255.664062 117.160156 249.386719 112.703125 245.078125 111.300781 C 240.675781 109.871094 235.75 110.023438 231.210938 111.652344 C 232.203125 110.59375 232.960938 109.863281 233.53125 108.5625 C 233.871094 107.785156 234.53125 107.292969 234.441406 106.183594 C 234.128906 107.8125 229.75 107.785156 228.566406 107.808594 C 225.742188 107.871094 222.839844 107.46875 220.0625 108.398438 C 216.15625 109.699219 212.253906 111.445312 210.230469 114.980469 C 208.292969 118.363281 207.855469 122.039062 208.980469 125.542969 C 210.59375 130.554688 215.257812 134.273438 221.167969 134.441406 C 222.8125 134.488281 224.496094 134.320312 226.097656 133.828125 C 226.335938 133.757812 226.566406 133.671875 226.789062 133.574219 "/>
</g>
</g>
</g>
<g clip-path="url(#clip8)" clip-rule="nonzero">
<g clip-path="url(#clip9)" clip-rule="nonzero">
<g clip-path="url(#clip10)" clip-rule="nonzero">
<path style=" stroke:none;fill-rule:nonzero;fill:rgb(0%,0%,0%);fill-opacity:1;" d="M 218.84375 130.632812 C 219.335938 130.414062 219.769531 130.074219 220.253906 129.824219 C 220.847656 129.519531 221.519531 129.410156 222.097656 129.085938 C 221.960938 128.726562 221.59375 128.535156 221.277344 128.363281 C 223.191406 126.824219 224.382812 124.28125 226.710938 123.367188 C 229.039062 122.453125 231.71875 122.300781 234.207031 122.375 C 232.566406 122.152344 229.375 119.480469 227.226562 118.582031 C 225.03125 117.664062 222.621094 117.621094 220.441406 118.421875 C 220.902344 117.851562 221.253906 117.457031 221.496094 116.742188 C 221.644531 116.3125 221.957031 116.054688 221.882812 115.429688 C 221.773438 116.335938 219.625 116.207031 219.042969 116.191406 C 217.664062 116.152344 216.230469 115.851562 214.894531 116.300781 C 213.011719 116.933594 211.148438 117.8125 210.246094 119.746094 C 209.386719 121.597656 209.265625 123.652344 209.910156 125.652344 C 210.828125 128.511719 213.210938 130.726562 216.109375 130.972656 C 216.917969 131.042969 217.738281 130.988281 218.511719 130.757812 C 218.625 130.722656 218.734375 130.679688 218.84375 130.632812 "/>
</g>
</g>
</g>
<g clip-path="url(#clip11)" clip-rule="nonzero">
<g clip-path="url(#clip12)" clip-rule="nonzero">
<g clip-path="url(#clip13)" clip-rule="nonzero">
<path style=" stroke:none;fill-rule:nonzero;fill:rgb(0%,0%,0%);fill-opacity:1;" d="M 206.316406 82.296875 C 207.25 81.328125 207.9375 80.15625 208.824219 79.128906 C 209.90625 77.875 211.347656 76.976562 212.382812 75.683594 C 211.753906 75.03125 210.746094 74.957031 209.875 74.890625 C 212.890625 69.609375 213.378906 62.808594 217.882812 58.503906 C 222.386719 54.199219 228.371094 51.242188 234.105469 48.976562 C 230.164062 50.085938 220.546875 47.292969 214.863281 47.398438 C 209.050781 47.511719 203.519531 49.78125 199.246094 53.679688 C 199.789062 51.972656 200.25 50.757812 200.183594 48.933594 C 200.140625 47.835938 200.625 46.960938 199.90625 45.648438 C 200.449219 47.761719 195.441406 49.578125 194.105469 50.109375 C 190.917969 51.371094 187.386719 52.109375 184.734375 54.414062 C 181.003906 57.652344 177.519531 61.425781 177.164062 66.597656 C 176.824219 71.539062 178.355469 76.207031 181.574219 80.007812 C 186.179688 85.445312 193.554688 88.015625 200.382812 85.726562 C 202.285156 85.089844 204.109375 84.171875 205.667969 82.902344 C 205.898438 82.710938 206.113281 82.507812 206.316406 82.296875 "/>
</g>
</g>
</g>
<g clip-path="url(#clip14)" clip-rule="nonzero">
<g clip-path="url(#clip15)" clip-rule="nonzero">
<g clip-path="url(#clip16)" clip-rule="nonzero">
<path style=" stroke:none;fill-rule:nonzero;fill:rgb(0%,0%,0%);fill-opacity:1;" d="M 201.765625 80.132812 C 202.5 79.285156 203.039062 78.304688 203.734375 77.417969 C 204.585938 76.335938 205.722656 75.496094 206.535156 74.390625 C 206.039062 73.941406 205.242188 73.980469 204.558594 74.011719 C 206.921875 69.601562 207.292969 64.253906 210.835938 60.460938 C 214.378906 56.671875 219.09375 53.789062 223.613281 51.46875 C 220.507812 52.714844 212.914062 51.457031 208.425781 52.089844 C 203.839844 52.738281 199.480469 55.039062 196.117188 58.492188 C 196.546875 57.105469 196.902344 56.117188 196.847656 54.699219 C 196.8125 53.847656 197.191406 53.117188 196.621094 52.160156 C 197.058594 53.757812 193.109375 55.65625 192.054688 56.199219 C 189.542969 57.492188 186.757812 58.40625 184.671875 60.457031 C 181.734375 63.34375 178.992188 66.621094 178.726562 70.6875 C 178.46875 74.578125 179.6875 78.070312 182.238281 80.726562 C 185.882812 84.523438 191.707031 85.820312 197.09375 83.378906 C 198.589844 82.699219 200.03125 81.804688 201.253906 80.664062 C 201.4375 80.492188 201.605469 80.316406 201.765625 80.132812 "/>
</g>
</g>
</g>
<g clip-path="url(#clip17)" clip-rule="nonzero">
<g clip-path="url(#clip18)" clip-rule="nonzero">
<g clip-path="url(#clip19)" clip-rule="nonzero">
<path style=" stroke:none;fill-rule:nonzero;fill:rgb(0%,0%,0%);fill-opacity:1;" d="M 193.332031 80.972656 C 193.679688 80.558594 193.921875 80.066406 194.246094 79.628906 C 194.644531 79.09375 195.203125 78.703125 195.578125 78.15625 C 195.296875 77.894531 194.882812 77.878906 194.523438 77.867188 C 195.570312 75.644531 195.527344 72.835938 197.214844 70.992188 C 198.90625 69.148438 201.25 67.839844 203.515625 66.8125 C 201.941406 67.332031 197.90625 66.332031 195.582031 66.464844 C 193.203125 66.605469 191.019531 67.625 189.410156 69.300781 C 189.574219 68.585938 189.71875 68.078125 189.625 67.328125 C 189.566406 66.878906 189.734375 66.507812 189.394531 65.980469 C 189.691406 66.84375 187.707031 67.667969 187.175781 67.910156 C 185.917969 68.480469 184.5 68.835938 183.496094 69.828125 C 182.082031 71.222656 180.792969 72.828125 180.832031 74.964844 C 180.871094 77.003906 181.664062 78.902344 183.121094 80.417969 C 185.199219 82.585938 188.3125 83.527344 191.027344 82.480469 C 191.78125 82.1875 192.496094 81.78125 193.089844 81.230469 C 193.175781 81.152344 193.257812 81.0625 193.332031 80.972656 "/>
</g>
</g>
</g>
<g clip-path="url(#clip20)" clip-rule="nonzero">
<path style=" stroke:none;fill-rule:nonzero;fill:rgb(0%,0%,0%);fill-opacity:1;" d="M 161.015625 50.949219 C 160.878906 49.605469 160.429688 48.324219 160.21875 46.988281 C 159.960938 45.347656 160.207031 43.667969 159.890625 42.042969 C 158.984375 42.101562 158.277344 42.824219 157.664062 43.441406 C 155.582031 37.730469 150.710938 32.960938 150.335938 26.738281 C 149.960938 20.523438 151.578125 14.046875 153.554688 8.203125 C 151.855469 11.925781 143.503906 17.460938 139.914062 21.867188 C 136.242188 26.375 134.398438 32.0625 134.609375 37.84375 C 133.660156 36.324219 133.027344 35.1875 131.59375 34.058594 C 130.730469 33.382812 130.371094 32.449219 128.90625 32.144531 C 130.871094 33.097656 129.019531 38.09375 128.5625 39.457031 C 127.464844 42.707031 125.746094 45.875 125.789062 49.386719 C 125.847656 54.328125 126.472656 59.425781 130.191406 63.039062 C 133.742188 66.496094 138.292969 68.34375 143.273438 68.34375 C 150.398438 68.34375 157.128906 64.382812 159.796875 57.691406 C 160.539062 55.828125 161.019531 53.839844 161.054688 51.832031 C 161.058594 51.53125 161.042969 51.238281 161.015625 50.949219 "/>
</g>
<g clip-path="url(#clip21)" clip-rule="nonzero">
<path style=" stroke:none;fill-rule:nonzero;fill:rgb(0%,0%,0%);fill-opacity:1;" d="M 156.421875 53.019531 C 156.25 51.910156 155.851562 50.867188 155.625 49.761719 C 155.347656 48.410156 155.441406 47.003906 155.125 45.667969 C 154.457031 45.757812 153.976562 46.390625 153.554688 46.933594 C 151.71875 42.277344 147.878906 38.539062 147.273438 33.382812 C 146.671875 28.230469 147.523438 22.769531 148.671875 17.820312 C 147.617188 20.992188 141.75 25.980469 139.332031 29.8125 C 136.859375 33.726562 135.796875 38.539062 136.257812 43.339844 C 135.476562 42.117188 134.953125 41.203125 133.835938 40.332031 C 133.164062 39.808594 132.851562 39.046875 131.753906 38.863281 C 133.253906 39.5625 132.152344 43.804688 131.882812 44.957031 C 131.246094 47.710938 130.144531 50.425781 130.359375 53.34375 C 130.664062 57.449219 131.390625 61.660156 134.320312 64.492188 C 137.125 67.203125 140.578125 68.53125 144.25 68.300781 C 149.503906 67.972656 154.261719 64.371094 155.875 58.683594 C 156.328125 57.101562 156.574219 55.425781 156.496094 53.753906 C 156.484375 53.503906 156.457031 53.261719 156.421875 53.019531 "/>
</g>
<path style=" stroke:none;fill-rule:nonzero;fill:rgb(0%,0%,0%);fill-opacity:1;" d="M 151.613281 59.996094 C 151.519531 59.464844 151.296875 58.960938 151.175781 58.433594 C 151.023438 57.78125 151.085938 57.105469 150.914062 56.460938 C 150.535156 56.507812 150.253906 56.8125 150.011719 57.078125 C 148.992188 54.847656 146.820312 53.0625 146.507812 50.582031 C 146.191406 48.101562 146.707031 45.464844 147.390625 43.074219 C 146.769531 44.609375 143.394531 47.042969 141.996094 48.90625 C 140.5625 50.808594 139.933594 53.132812 140.167969 55.445312 C 139.730469 54.859375 139.4375 54.421875 138.804688 54.007812 C 138.421875 53.757812 138.25 53.394531 137.625 53.308594 C 138.476562 53.640625 137.824219 55.6875 137.664062 56.25 C 137.285156 57.578125 136.640625 58.890625 136.746094 60.296875 C 136.898438 62.277344 137.289062 64.300781 138.945312 65.648438 C 140.527344 66.941406 142.492188 67.5625 144.585938 67.429688 C 147.585938 67.242188 150.316406 65.480469 151.269531 62.730469 C 151.535156 61.964844 151.6875 61.15625 151.652344 60.351562 C 151.644531 60.230469 151.628906 60.113281 151.613281 59.996094 "/>
<g clip-path="url(#clip22)" clip-rule="nonzero">
<g clip-path="url(#clip23)" clip-rule="nonzero">
<g clip-path="url(#clip24)" clip-rule="nonzero">
<path style=" stroke:none;fill-rule:nonzero;fill:rgb(0%,0%,0%);fill-opacity:1;" d="M 99.148438 55.246094 C 98.03125 54.496094 96.757812 54.019531 95.59375 53.328125 C 94.167969 52.476562 93.035156 51.210938 91.582031 50.417969 C 91.050781 51.148438 91.152344 52.15625 91.234375 53.023438 C 85.511719 50.96875 78.730469 51.664062 73.710938 47.972656 C 68.691406 44.285156 64.746094 38.898438 61.519531 33.644531 C 63.292969 37.332031 62.207031 47.289062 63.296875 52.871094 C 64.414062 58.574219 67.605469 63.628906 72.1875 67.164062 C 70.410156 66.921875 69.132812 66.679688 67.347656 67.0625 C 66.277344 67.292969 65.328125 66.96875 64.160156 67.902344 C 66.148438 67 68.804688 71.621094 69.558594 72.84375 C 71.355469 75.765625 72.691406 79.113281 75.417969 81.328125 C 79.253906 84.441406 83.574219 87.222656 88.730469 86.675781 C 93.65625 86.15625 97.992188 83.839844 101.175781 80.011719 C 105.730469 74.535156 106.988281 66.824219 103.554688 60.496094 C 102.597656 58.734375 101.375 57.09375 99.855469 55.78125 C 99.625 55.585938 99.390625 55.410156 99.148438 55.246094 "/>
</g>
</g>
</g>
<g clip-path="url(#clip25)" clip-rule="nonzero">
<g clip-path="url(#clip26)" clip-rule="nonzero">
<g clip-path="url(#clip27)" clip-rule="nonzero">
<path style=" stroke:none;fill-rule:nonzero;fill:rgb(0%,0%,0%);fill-opacity:1;" d="M 97.804688 60.105469 C 96.839844 59.527344 95.78125 59.164062 94.789062 58.632812 C 93.574219 57.980469 92.550781 57.007812 91.320312 56.398438 C 90.964844 56.96875 91.140625 57.742188 91.289062 58.414062 C 86.539062 56.847656 81.207031 57.410156 76.855469 54.574219 C 72.511719 51.742188 68.859375 47.59375 65.789062 43.546875 C 67.554688 46.386719 67.632812 54.085938 69.03125 58.394531 C 70.460938 62.800781 73.484375 66.695312 77.464844 69.410156 C 76.027344 69.230469 74.988281 69.046875 73.605469 69.351562 C 72.773438 69.53125 71.988281 69.285156 71.144531 70.007812 C 72.640625 69.304688 75.195312 72.863281 75.914062 73.808594 C 77.621094 76.058594 79 78.644531 81.382812 80.34375 C 84.734375 82.738281 88.4375 84.871094 92.488281 84.429688 C 96.363281 84.011719 99.59375 82.203125 101.765625 79.234375 C 104.875 74.984375 105.144531 69.023438 101.808594 64.144531 C 100.878906 62.785156 99.75 61.523438 98.414062 60.515625 C 98.214844 60.363281 98.011719 60.230469 97.804688 60.105469 "/>
</g>
</g>
</g>
<g clip-path="url(#clip28)" clip-rule="nonzero">
<g clip-path="url(#clip29)" clip-rule="nonzero">
<g clip-path="url(#clip30)" clip-rule="nonzero">
<path style=" stroke:none;fill-rule:nonzero;fill:rgb(0%,0%,0%);fill-opacity:1;" d="M 100.089844 68.265625 C 99.625 67.992188 99.09375 67.839844 98.609375 67.597656 C 98.011719 67.296875 97.53125 66.816406 96.925781 66.539062 C 96.71875 66.859375 96.777344 67.269531 96.824219 67.628906 C 94.453125 66.984375 91.695312 67.511719 89.589844 66.164062 C 87.480469 64.820312 85.785156 62.742188 84.382812 60.683594 C 85.167969 62.144531 84.878906 66.292969 85.414062 68.558594 C 85.960938 70.878906 87.34375 72.851562 89.269531 74.148438 C 88.539062 74.109375 88.015625 74.054688 87.292969 74.277344 C 86.859375 74.410156 86.46875 74.3125 86.003906 74.738281 C 86.804688 74.296875 87.960938 76.109375 88.289062 76.585938 C 89.066406 77.730469 89.667969 79.0625 90.816406 79.882812 C 92.433594 81.03125 94.238281 82.023438 96.335938 81.617188 C 98.339844 81.226562 100.070312 80.113281 101.3125 78.417969 C 103.085938 75.992188 103.476562 72.765625 101.972656 70.273438 C 101.554688 69.578125 101.03125 68.945312 100.386719 68.460938 C 100.292969 68.386719 100.191406 68.324219 100.089844 68.265625 "/>
</g>
</g>
</g>
<g clip-path="url(#clip31)" clip-rule="nonzero">
<g clip-path="url(#clip32)" clip-rule="nonzero">
<g clip-path="url(#clip33)" clip-rule="nonzero">
<path style=" stroke:none;fill-rule:nonzero;fill:rgb(0%,0%,0%);fill-opacity:1;" d="M 65.097656 102.390625 C 63.761719 102.195312 62.410156 102.316406 61.058594 102.195312 C 59.40625 102.042969 57.839844 101.390625 56.1875 101.300781 C 56.019531 102.191406 56.546875 103.054688 56.996094 103.800781 C 50.949219 104.417969 45.132812 107.972656 39.007812 106.8125 C 32.890625 105.648438 27.003906 102.496094 21.824219 99.148438 C 25.019531 101.710938 28.335938 111.160156 31.730469 115.722656 C 35.199219 120.386719 40.261719 123.566406 45.917969 124.78125 C 44.210938 125.328125 42.957031 125.660156 41.511719 126.777344 C 40.644531 127.449219 39.648438 127.566406 38.996094 128.910156 C 40.402344 127.238281 44.792969 130.257812 46 131.039062 C 48.882812 132.898438 51.53125 135.34375 54.949219 136.160156 C 59.753906 137.316406 64.851562 137.957031 69.265625 135.242188 C 73.484375 132.644531 76.394531 128.683594 77.613281 123.855469 C 79.359375 116.949219 77.167969 109.449219 71.335938 105.226562 C 69.710938 104.046875 67.902344 103.097656 65.960938 102.570312 C 65.671875 102.492188 65.386719 102.433594 65.097656 102.390625 "/>
</g>
</g>
</g>
<g clip-path="url(#clip34)" clip-rule="nonzero">
<g clip-path="url(#clip35)" clip-rule="nonzero">
<g clip-path="url(#clip36)" clip-rule="nonzero">
<path style=" stroke:none;fill-rule:nonzero;fill:rgb(0%,0%,0%);fill-opacity:1;" d="M 65.980469 107.355469 C 64.859375 107.25 63.75 107.378906 62.625 107.328125 C 61.246094 107.265625 59.90625 106.828125 58.53125 106.808594 C 58.457031 107.476562 58.949219 108.097656 59.375 108.640625 C 54.414062 109.28125 49.84375 112.085938 44.699219 111.40625 C 39.554688 110.726562 34.46875 108.566406 29.953125 106.238281 C 32.769531 108.039062 36.167969 114.949219 39.289062 118.234375 C 42.480469 121.589844 46.886719 123.796875 51.652344 124.527344 C 50.277344 124.984375 49.261719 125.269531 48.140625 126.140625 C 47.46875 126.664062 46.65625 126.777344 46.207031 127.796875 C 47.253906 126.515625 51.09375 128.625 52.148438 129.167969 C 54.660156 130.457031 57.023438 132.195312 59.90625 132.699219 C 63.960938 133.410156 68.222656 133.734375 71.6875 131.589844 C 75 129.539062 77.136719 126.515625 77.8125 122.898438 C 78.78125 117.722656 76.453125 112.230469 71.335938 109.269531 C 69.910156 108.445312 68.347656 107.792969 66.707031 107.460938 C 66.464844 107.410156 66.21875 107.375 65.980469 107.355469 "/>
</g>
</g>
</g>
<g clip-path="url(#clip37)" clip-rule="nonzero">
<g clip-path="url(#clip38)" clip-rule="nonzero">
<g clip-path="url(#clip39)" clip-rule="nonzero">
<path style=" stroke:none;fill-rule:nonzero;fill:rgb(0%,0%,0%);fill-opacity:1;" d="M 71.5625 113.726562 C 71.027344 113.683594 70.484375 113.773438 69.941406 113.765625 C 69.273438 113.75 68.628906 113.523438 67.964844 113.535156 C 67.917969 113.914062 68.144531 114.261719 68.34375 114.5625 C 65.929688 115.003906 63.667969 116.671875 61.183594 116.367188 C 58.703125 116.066406 56.273438 114.921875 54.125 113.671875 C 55.460938 114.648438 56.992188 118.515625 58.453125 120.328125 C 59.945312 122.183594 62.046875 123.367188 64.34375 123.703125 C 63.667969 123.984375 63.171875 124.164062 62.617188 124.675781 C 62.28125 124.984375 61.886719 125.0625 61.652344 125.648438 C 62.183594 124.902344 64.007812 126.039062 64.511719 126.328125 C 65.707031 127.023438 66.824219 127.96875 68.214844 128.210938 C 70.167969 128.546875 72.226562 128.664062 73.941406 127.390625 C 75.578125 126.175781 76.664062 124.421875 77.050781 122.359375 C 77.601562 119.40625 76.5625 116.324219 74.128906 114.726562 C 73.453125 114.28125 72.707031 113.9375 71.917969 113.773438 C 71.800781 113.75 71.679688 113.734375 71.5625 113.726562 "/>
</g>
</g>
</g>
</g>
</svg>
