<?xml version="1.0" encoding="UTF-8"?>
<svg xmlns="http://www.w3.org/2000/svg" xmlns:xlink="http://www.w3.org/1999/xlink" width="375pt" height="374.999991pt" viewBox="0 0 375 374.999991" version="1.2">
<defs>
<clipPath id="clip1">
  <path d="M 0 67.03125 L 375 67.03125 L 375 375 L 0 375 Z M 0 67.03125 "/>
</clipPath>
</defs>
<g id="surface1">
<path style=" stroke:none;fill-rule:nonzero;fill:rgb(95.289612%,96.469116%,90.19928%);fill-opacity:1;" d="M 372.609375 69.398438 L 372.609375 373.285156 L 2.527344 373.285156 C 44.421875 360.679688 72.363281 336.234375 95.808594 309.742188 C 135.839844 264.496094 162.828125 213.195312 223.621094 204.226562 C 241.707031 201.585938 257.335938 198.539062 270.96875 194.757812 C 330.171875 178.28125 359.75 150.105469 372.609375 69.398438 Z M 372.609375 69.398438 "/>
<g clip-path="url(#clip1)" clip-rule="nonzero">
<path style="fill:none;stroke-width:10;stroke-linecap:butt;stroke-linejoin:round;stroke:rgb(95.289612%,96.469116%,90.19928%);stroke-opacity:1;stroke-miterlimit:10;" d="M 819.502181 5.000382 L 819.502181 672.596449 L 4.998731 672.596449 C 97.203262 644.90402 158.698741 591.201132 210.29889 533.001549 C 298.402577 433.602292 357.800349 320.901744 491.597936 301.198671 C 531.402782 295.397592 565.800016 288.704039 595.804101 280.397168 C 726.102644 244.200495 791.200333 182.302296 819.502181 5.000382 Z M 819.502181 5.000382 " transform="matrix(0.454365,0,0,0.455195,0.256094,67.122286)"/>
</g>
</g>
</svg>
