<?xml version="1.0" encoding="UTF-8"?>
<svg xmlns="http://www.w3.org/2000/svg" xmlns:xlink="http://www.w3.org/1999/xlink" width="375pt" height="374.999991pt" viewBox="0 0 375 374.999991" version="1.2">
<defs>
<clipPath id="clip1">
  <path d="M 0 0 L 232 0 L 232 238 L 0 238 Z M 0 0 "/>
</clipPath>
<clipPath id="clip2">
  <path d="M 252.71875 26.851562 L 223.101562 261.238281 L -161.589844 212.628906 L -131.972656 -21.757812 Z M 252.71875 26.851562 "/>
</clipPath>
<clipPath id="clip3">
  <path d="M 252.71875 26.851562 L 223.101562 261.238281 L -161.589844 212.628906 L -131.972656 -21.757812 Z M 252.71875 26.851562 "/>
</clipPath>
</defs>
<g id="surface1">
<g clip-path="url(#clip1)" clip-rule="nonzero">
<g clip-path="url(#clip2)" clip-rule="nonzero">
<g clip-path="url(#clip3)" clip-rule="nonzero">
<path style=" stroke:none;fill-rule:nonzero;fill:rgb(95.289612%,96.469116%,90.19928%);fill-opacity:1;" d="M 230.941406 131.632812 C 232.929688 95.003906 202.109375 64.941406 170.773438 46.304688 C 125.726562 19.492188 74.535156 4.40625 22.773438 -1.824219 C -25.171875 -7.570312 -79.660156 -3.277344 -111.730469 33.050781 C -129.753906 53.445312 -137.632812 80.789062 -144.261719 107.441406 C -149.285156 127.539062 -153.574219 149.203125 -146.503906 168.808594 C -134.902344 200.480469 -98.511719 214.085938 -65.929688 220.996094 C -23.671875 229.988281 42.246094 236.609375 66.574219 236.964844 C 90.992188 237.253906 147.320312 237.460938 178.644531 219.289062 C 209.898438 201.109375 234.84375 168.308594 230.941406 131.632812 "/>
</g>
</g>
</g>
</g>
</svg>
