<?xml version="1.0" encoding="UTF-8"?>
<svg xmlns="http://www.w3.org/2000/svg" xmlns:xlink="http://www.w3.org/1999/xlink" width="375pt" height="374.999991pt" viewBox="0 0 375 374.999991" version="1.2">
<defs>
<clipPath id="clip1">
  <path d="M 243 181 L 374 181 L 374 374.4375 L 243 374.4375 Z M 243 181 "/>
</clipPath>
<clipPath id="clip2">
  <path d="M 0 0.9375 L 275 0.9375 L 275 374.4375 L 0 374.4375 Z M 0 0.9375 "/>
</clipPath>
</defs>
<g id="surface1">
<g clip-path="url(#clip1)" clip-rule="nonzero">
<path style=" stroke:none;fill-rule:nonzero;fill:rgb(0%,0%,0%);fill-opacity:1;" d="M 369.792969 185.808594 C 367.429688 183.132812 364.03125 181.605469 360.464844 181.605469 L 275.019531 181.605469 C 271.464844 181.609375 268.078125 183.136719 265.71875 185.800781 C 263.363281 188.464844 262.253906 192.015625 262.679688 195.550781 L 264.910156 214.242188 C 251.941406 218.269531 243.113281 230.304688 243.140625 243.910156 L 243.140625 281.289062 C 243.160156 298.484375 257.066406 312.417969 274.230469 312.441406 L 276.671875 312.441406 L 280.09375 341.023438 L 265.664062 353.355469 C 262 356.785156 260.8125 362.117188 262.671875 366.78125 C 264.628906 371.644531 269.359375 374.800781 274.582031 374.738281 L 360.921875 374.738281 C 366.148438 374.800781 370.878906 371.644531 372.832031 366.78125 C 374.707031 362.003906 373.414062 356.558594 369.59375 353.132812 L 355.410156 341.023438 L 372.820312 195.5625 C 373.25 192.027344 372.148438 188.476562 369.792969 185.808594 Z M 343.328125 337.359375 L 292.179688 337.359375 L 285.464844 281.289062 L 350.039062 281.289062 Z M 283.972656 268.828125 L 281.734375 250.136719 L 353.773438 250.136719 L 351.53125 268.828125 Z M 360.480469 194.070312 L 355.257812 237.679688 L 280.242188 237.679688 L 275.019531 194.070312 Z M 274.230469 299.980469 C 263.925781 299.980469 255.578125 291.609375 255.578125 281.289062 L 255.578125 243.910156 C 255.5625 236.613281 259.8125 229.988281 266.441406 226.96875 L 274.230469 292.050781 Z M 274.582031 362.28125 L 273.964844 362.617188 L 288.953125 349.820312 L 346.550781 349.820312 L 361.027344 362.1875 Z M 274.582031 362.28125 "/>
</g>
<g clip-path="url(#clip2)" clip-rule="nonzero">
<path style=" stroke:none;fill-rule:nonzero;fill:rgb(0%,0%,0%);fill-opacity:1;" d="M 261.796875 25.855469 L 240.4375 25.855469 C 231.269531 10.378906 214.625 0.90625 196.660156 0.9375 L 103.054688 0.9375 C 85.09375 0.90625 68.453125 10.382812 59.28125 25.855469 L 19.273438 25.855469 C 14.054688 25.867188 9.078125 28.0625 5.550781 31.917969 C 2.023438 35.773438 0.269531 40.933594 0.714844 46.144531 L 13.148438 189.433594 C 13.664062 195.558594 17.152344 201.039062 22.476562 204.089844 L 67.863281 235.273438 L 68.074219 239.082031 C 68.570312 247.476562 73.277344 255.054688 80.578125 259.203125 C 66.800781 272.714844 44.179688 304.625 44.179688 368.507812 C 44.179688 371.949219 46.964844 374.738281 50.398438 374.738281 L 236.925781 374.738281 C 240.359375 374.738281 243.140625 371.949219 243.140625 368.507812 C 243.140625 304.625 220.503906 272.714844 206.746094 259.214844 C 214.046875 255.058594 218.757812 247.484375 219.25 239.082031 L 226 117.097656 C 226.761719 101.054688 232.777344 85.710938 243.117188 73.433594 C 251.257812 64.378906 260.050781 55.933594 269.429688 48.171875 L 269.914062 47.757812 C 273.851562 44.359375 275.261719 38.863281 273.453125 33.980469 C 271.644531 29.097656 266.992188 25.855469 261.796875 25.855469 Z M 103.054688 13.398438 L 196.660156 13.398438 C 207.46875 13.371094 217.792969 17.890625 225.113281 25.855469 L 74.570312 25.855469 C 81.902344 17.882812 92.234375 13.363281 103.054688 13.398438 Z M 137.445312 206.003906 C 130.074219 205.03125 118.792969 202.265625 118.792969 194.414062 C 118.890625 190.28125 118.257812 186.171875 116.925781 182.261719 C 125.511719 183.507812 133.0625 188.601562 137.445312 196.101562 Z M 168.53125 194.414062 C 168.53125 202.210938 157.246094 205 149.878906 205.988281 L 149.878906 196.101562 C 154.261719 188.601562 161.8125 183.507812 170.398438 182.261719 C 169.066406 186.171875 168.4375 190.28125 168.53125 194.414062 Z M 137.445312 177.765625 C 126.113281 170.242188 112.308594 167.4375 98.945312 169.941406 C 95.816406 170.574219 93.695312 173.511719 94.078125 176.6875 C 94.453125 179.890625 97.167969 182.304688 100.386719 182.292969 L 100.457031 182.292969 C 101.589844 182.34375 102.660156 182.824219 103.453125 183.640625 C 105.703125 186.753906 106.738281 190.585938 106.355469 194.414062 C 106.277344 198.777344 107.664062 203.046875 110.296875 206.53125 L 78.695312 206.53125 L 69.371094 38.316406 L 112.574219 38.316406 L 112.574219 44.546875 C 112.574219 54.871094 120.925781 63.238281 131.226562 63.238281 L 137.445312 63.238281 Z M 65.320312 189.242188 L 49.492188 176.875 L 39.617188 63.238281 L 58.316406 63.238281 Z M 131.226562 50.777344 C 127.792969 50.777344 125.007812 47.988281 125.007812 44.546875 L 125.007812 38.316406 L 162.3125 38.316406 L 162.3125 44.546875 C 162.3125 47.988281 159.53125 50.777344 156.097656 50.777344 Z M 29.257812 193.664062 C 29.078125 193.546875 28.890625 193.429688 28.707031 193.328125 C 26.878906 192.308594 25.6875 190.433594 25.535156 188.34375 L 13.101562 45.054688 C 12.949219 43.3125 13.550781 41.585938 14.753906 40.316406 C 15.914062 39.050781 17.554688 38.324219 19.273438 38.316406 L 56.933594 38.316406 L 57.625 50.777344 L 32.832031 50.777344 C 31.089844 50.769531 29.417969 51.5 28.234375 52.789062 C 27.050781 54.078125 26.464844 55.804688 26.617188 57.550781 L 37.339844 180.65625 C 37.496094 182.375 38.351562 183.953125 39.710938 185.015625 L 66.214844 205.761719 L 66.980469 219.574219 Z M 230.605469 362.28125 L 56.679688 362.28125 C 58.441406 292.832031 89.421875 267.160156 95.800781 262.597656 L 191.492188 262.597656 C 197.863281 267.160156 228.84375 292.832031 230.605469 362.28125 Z M 194.371094 250.136719 L 92.90625 250.136719 C 86.308594 250.148438 80.855469 244.996094 80.472656 238.398438 L 79.386719 218.988281 L 207.894531 218.988281 L 206.820312 238.382812 C 206.445312 244.992188 200.980469 250.15625 194.371094 250.136719 Z M 261.304688 38.722656 C 251.457031 46.882812 242.230469 55.757812 233.699219 65.289062 C 221.554688 79.644531 214.476562 97.613281 213.574219 116.410156 L 208.585938 206.53125 L 176.988281 206.53125 C 179.636719 203.054688 181.035156 198.785156 180.96875 194.414062 C 180.582031 190.578125 181.617188 186.742188 183.871094 183.621094 C 184.621094 182.859375 185.613281 182.378906 186.675781 182.261719 C 189.964844 182.535156 192.890625 180.183594 193.34375 176.90625 C 193.796875 173.632812 191.613281 170.578125 188.378906 169.941406 C 175.019531 167.4375 161.210938 170.246094 149.878906 177.765625 L 149.878906 63.238281 L 156.097656 63.238281 C 166.398438 63.238281 174.75 54.871094 174.75 44.546875 L 174.75 38.316406 L 261.796875 38.316406 Z M 261.304688 38.722656 "/>
</g>
<path style=" stroke:none;fill-rule:nonzero;fill:rgb(0%,0%,0%);fill-opacity:1;" d="M 143.664062 275.058594 C 123.058594 275.058594 106.355469 291.796875 106.355469 312.441406 C 106.355469 333.085938 123.058594 349.820312 143.664062 349.820312 C 164.265625 349.820312 180.96875 333.085938 180.96875 312.441406 C 180.949219 291.804688 164.257812 275.082031 143.664062 275.058594 Z M 143.664062 337.359375 C 131.152344 337.375 120.589844 328.0625 119.007812 315.628906 C 117.429688 303.195312 125.332031 291.527344 137.445312 288.40625 L 137.445312 299.980469 C 137.445312 303.417969 140.226562 306.210938 143.664062 306.210938 C 147.09375 306.210938 149.878906 303.417969 149.878906 299.980469 L 149.878906 288.40625 C 161.992188 291.527344 169.894531 303.195312 168.3125 315.628906 C 166.738281 328.0625 156.167969 337.375 143.664062 337.359375 Z M 143.664062 337.359375 "/>
<path style=" stroke:none;fill-rule:nonzero;fill:rgb(0%,0%,0%);fill-opacity:1;" d="M 194.339844 287.875 C 192.785156 288.425781 191.511719 289.570312 190.800781 291.0625 C 190.089844 292.554688 190 294.265625 190.546875 295.824219 C 194.320312 306.578125 194.320312 318.300781 190.546875 329.054688 C 189.808594 331.15625 190.242188 333.488281 191.6875 335.183594 C 193.136719 336.875 195.367188 337.664062 197.554688 337.257812 C 199.742188 336.851562 201.542969 335.304688 202.28125 333.203125 C 206.992188 319.765625 206.992188 305.113281 202.28125 291.675781 C 201.734375 290.117188 200.585938 288.839844 199.097656 288.125 C 197.609375 287.414062 195.894531 287.320312 194.339844 287.875 Z M 194.339844 287.875 "/>
<path style=" stroke:none;fill-rule:nonzero;fill:rgb(0%,0%,0%);fill-opacity:1;" d="M 92.933594 287.875 C 91.378906 287.324219 89.667969 287.414062 88.179688 288.128906 C 86.695312 288.839844 85.550781 290.117188 85 291.675781 C 80.296875 305.117188 80.296875 319.761719 85 333.203125 C 85.878906 335.699219 88.230469 337.363281 90.871094 337.359375 C 92.886719 337.359375 94.78125 336.378906 95.945312 334.726562 C 97.109375 333.078125 97.402344 330.960938 96.734375 329.054688 C 92.964844 318.300781 92.964844 306.578125 96.734375 295.824219 C 97.28125 294.265625 97.1875 292.550781 96.476562 291.058594 C 95.765625 289.566406 94.488281 288.425781 92.933594 287.875 Z M 92.933594 287.875 "/>
</g>
</svg>
