<?xml version="1.0" encoding="UTF-8"?>
<svg xmlns="http://www.w3.org/2000/svg" xmlns:xlink="http://www.w3.org/1999/xlink" width="375pt" height="374.999991pt" viewBox="0 0 375 374.999991" version="1.2">
<defs>
<clipPath id="clip1">
  <path d="M 92 0 L 366.703125 0 L 366.703125 375 L 92 375 Z M 92 0 "/>
</clipPath>
<clipPath id="clip2">
  <path d="M 7.734375 250 L 150 250 L 150 375 L 7.734375 375 Z M 7.734375 250 "/>
</clipPath>
</defs>
<g id="surface1">
<g clip-path="url(#clip1)" clip-rule="nonzero">
<path style=" stroke:none;fill-rule:nonzero;fill:rgb(6.269836%,5.879211%,5.099487%);fill-opacity:1;" d="M 354.1875 294.421875 C 354.1875 311.339844 340.441406 325.105469 323.550781 325.105469 L 291.914062 325.105469 L 291.914062 306.394531 L 323.050781 306.394531 C 329.917969 306.394531 335.503906 300.796875 335.503906 293.917969 L 335.503906 194.125 C 335.503906 187.25 329.917969 181.652344 323.050781 181.652344 L 291.914062 181.652344 L 291.914062 162.941406 L 323.550781 162.941406 C 340.441406 162.941406 354.1875 176.707031 354.1875 193.625 Z M 291.914062 194.125 L 323.050781 194.125 L 323.050781 293.917969 L 291.914062 293.917969 Z M 270.121094 187.890625 C 264.300781 187.890625 258.828125 190.160156 254.710938 194.285156 C 250.59375 198.410156 248.324219 203.890625 248.324219 209.71875 L 248.324219 222.191406 C 248.324219 227.351562 244.132812 231.550781 238.984375 231.550781 C 236.488281 231.550781 234.144531 230.574219 232.382812 228.808594 C 230.613281 227.039062 229.640625 224.691406 229.640625 222.191406 L 229.640625 191.007812 C 229.640625 178.972656 219.863281 169.179688 207.847656 169.179688 C 202.027344 169.179688 196.554688 171.449219 192.4375 175.574219 C 188.320312 179.699219 186.050781 185.179688 186.050781 191.007812 L 186.050781 259.617188 C 186.050781 264.773438 181.859375 268.972656 176.710938 268.972656 C 174.21875 268.972656 171.871094 267.996094 170.109375 266.230469 C 168.34375 264.460938 167.371094 262.113281 167.371094 259.617188 L 167.371094 209.71875 C 167.371094 197.683594 157.589844 187.890625 145.574219 187.890625 C 139.753906 187.890625 134.28125 190.160156 130.164062 194.285156 C 126.046875 198.410156 123.777344 203.890625 123.777344 209.71875 L 123.777344 234.667969 C 123.777344 239.828125 119.589844 244.023438 114.4375 244.023438 C 111.945312 244.023438 109.601562 243.046875 107.835938 241.28125 C 106.070312 239.511719 105.097656 237.164062 105.097656 234.667969 L 105.097656 144.230469 C 105.097656 133.914062 113.476562 125.519531 123.777344 125.519531 L 260.777344 125.519531 C 265.769531 125.519531 270.460938 127.464844 273.988281 131 C 277.515625 134.53125 279.460938 139.230469 279.460938 144.230469 L 279.460938 190 C 276.625 188.648438 273.460938 187.890625 270.121094 187.890625 Z M 123.777344 100.570312 L 167.371094 100.570312 L 167.371094 88.097656 L 123.777344 88.097656 L 123.777344 75.625 L 191.894531 75.625 L 171.140625 113.046875 L 123.777344 113.046875 Z M 192.304688 100.570312 L 215.421875 100.570312 L 208.503906 113.046875 L 185.386719 113.046875 Z M 222.339844 88.097656 L 199.226562 88.097656 L 206.144531 75.625 L 229.257812 75.625 Z M 233.820312 25.726562 L 256.933594 25.726562 L 250.015625 38.203125 L 226.902344 38.203125 Z M 219.980469 50.675781 L 243.097656 50.675781 L 236.179688 63.148438 L 213.0625 63.148438 Z M 260.777344 75.625 L 260.777344 88.097656 L 248.324219 88.097656 L 248.324219 100.570312 L 260.777344 100.570312 L 260.777344 113.046875 L 222.75 113.046875 L 243.507812 75.625 Z M 323.550781 150.46875 L 291.914062 150.46875 L 291.914062 144.230469 C 291.914062 135.898438 288.675781 128.066406 282.796875 122.179688 C 280 119.375 276.757812 117.179688 273.234375 115.636719 L 273.234375 69.386719 C 273.234375 65.941406 270.445312 63.148438 267.003906 63.148438 L 250.429688 63.148438 L 272.449219 23.445312 C 273.296875 21.917969 273.46875 20.105469 272.914062 18.445312 C 272.363281 16.789062 271.140625 15.4375 269.546875 14.722656 L 267.476562 13.796875 C 267.476562 13.796875 267.476562 13.796875 267.472656 13.796875 L 239.617188 1.320312 C 236.667969 0.00390625 233.199219 1.160156 231.632812 3.988281 L 198.816406 63.148438 L 117.550781 63.148438 C 114.113281 63.148438 111.324219 65.941406 111.324219 69.386719 L 111.324219 115.660156 C 100.339844 120.480469 92.640625 131.46875 92.640625 144.230469 L 92.640625 256.496094 L 105.097656 256.496094 L 105.097656 254.402344 C 107.980469 255.773438 111.152344 256.496094 114.4375 256.496094 C 126.453125 256.496094 136.234375 246.703125 136.234375 234.667969 L 136.234375 209.71875 C 136.234375 207.222656 137.207031 204.875 138.96875 203.105469 C 140.738281 201.339844 143.082031 200.363281 145.574219 200.363281 C 150.726562 200.363281 154.914062 204.558594 154.914062 209.71875 L 154.914062 259.617188 C 154.914062 265.445312 157.183594 270.921875 161.300781 275.050781 C 165.417969 279.171875 170.890625 281.445312 176.710938 281.445312 C 188.726562 281.445312 198.503906 271.652344 198.503906 259.617188 L 198.503906 191.007812 C 198.503906 188.511719 199.480469 186.164062 201.242188 184.394531 C 203.007812 182.628906 205.351562 181.652344 207.847656 181.652344 C 212.996094 181.652344 217.1875 185.847656 217.1875 191.007812 L 217.1875 222.191406 C 217.1875 228.023438 219.457031 233.5 223.574219 237.628906 C 227.691406 241.75 233.164062 244.023438 238.984375 244.023438 C 251 244.023438 260.777344 234.230469 260.777344 222.191406 L 260.777344 209.71875 C 260.777344 207.222656 261.75 204.875 263.515625 203.105469 C 265.28125 201.339844 267.625 200.363281 270.121094 200.363281 C 275.269531 200.363281 279.460938 204.558594 279.460938 209.71875 L 279.460938 343.816406 C 279.460938 354.132812 271.078125 362.527344 260.777344 362.527344 L 154.914062 362.527344 L 154.914062 375 L 260.777344 375 C 277.945312 375 291.914062 361.007812 291.914062 343.816406 L 291.914062 337.578125 L 323.550781 337.578125 C 347.3125 337.578125 366.640625 318.21875 366.640625 294.421875 L 366.640625 193.625 C 366.640625 169.828125 347.3125 150.46875 323.550781 150.46875 "/>
</g>
<g clip-path="url(#clip2)" clip-rule="nonzero">
<path style=" stroke:none;fill-rule:nonzero;fill:rgb(6.269836%,5.879211%,5.099487%);fill-opacity:1;" d="M 133.777344 347.261719 C 129.078125 356.675781 119.628906 362.527344 109.121094 362.527344 L 72.042969 362.527344 C 66.230469 362.527344 60.492188 361 55.449219 358.113281 C 39.4375 348.949219 33.855469 328.449219 43.003906 312.410156 L 44.121094 310.457031 L 55.9375 334.128906 L 67.078125 328.550781 L 52.902344 300.15625 L 80.1875 300.15625 L 80.1875 287.683594 L 58.195312 287.683594 C 62.367188 283.25 67.683594 280.035156 73.695312 278.394531 C 76.621094 277.59375 79.59375 277.195312 82.546875 277.195312 C 88.292969 277.195312 93.964844 278.695312 99.085938 281.625 L 101.109375 282.78125 C 105.09375 285.0625 108.515625 288.085938 111.269531 291.765625 L 131.171875 318.347656 C 137.480469 326.769531 138.476562 337.847656 133.777344 347.261719 Z M 121.234375 284.28125 C 117.449219 279.230469 112.757812 275.082031 107.285156 271.949219 L 105.265625 270.796875 C 94.621094 264.703125 82.246094 263.125 70.417969 266.359375 C 63.511719 268.242188 57.28125 271.648438 52.074219 276.269531 L 55.195312 257.523438 L 42.910156 255.46875 L 38.089844 284.425781 C 29.300781 275.398438 24.144531 263.117188 24.144531 250.261719 L 11.6875 250.261719 C 11.6875 267.386719 18.980469 283.703125 31.277344 295.183594 L 7.800781 313.996094 L 15.578125 323.738281 L 29.050781 312.941406 C 21.304688 333.667969 29.480469 357.617188 49.269531 368.941406 C 56.195312 372.90625 64.066406 375 72.042969 375 L 109.121094 375 C 124.378906 375 138.09375 366.507812 144.917969 352.839844 C 151.742188 339.171875 150.292969 323.085938 141.136719 310.863281 L 121.234375 284.28125 "/>
</g>
<path style=" stroke:none;fill-rule:nonzero;fill:rgb(6.269836%,5.879211%,5.099487%);fill-opacity:1;" d="M 86.414062 312.628906 L 98.871094 312.628906 L 98.871094 300.15625 L 86.414062 300.15625 L 86.414062 312.628906 "/>
<path style=" stroke:none;fill-rule:nonzero;fill:rgb(6.269836%,5.879211%,5.099487%);fill-opacity:1;" d="M 105.097656 337.578125 L 117.550781 337.578125 L 117.550781 325.105469 L 105.097656 325.105469 L 105.097656 337.578125 "/>
<path style=" stroke:none;fill-rule:nonzero;fill:rgb(6.269836%,5.879211%,5.099487%);fill-opacity:1;" d="M 73.960938 343.816406 L 86.414062 343.816406 L 86.414062 331.339844 L 73.960938 331.339844 L 73.960938 343.816406 "/>
</g>
</svg>
