<?xml version="1.0" encoding="UTF-8"?>
<svg xmlns="http://www.w3.org/2000/svg" xmlns:xlink="http://www.w3.org/1999/xlink" width="375pt" height="374.999991pt" viewBox="0 0 375 374.999991" version="1.2">
<defs>
<clipPath id="clip1">
  <path d="M 93.492188 0 L 272.742188 0 L 272.742188 375 L 93.492188 375 Z M 93.492188 0 "/>
</clipPath>
</defs>
<g id="surface1">
<path style=" stroke:none;fill-rule:nonzero;fill:rgb(6.269836%,5.879211%,5.099487%);fill-opacity:1;" d="M 185.246094 154.691406 C 187.773438 154.691406 189.824219 152.644531 189.824219 150.117188 C 189.824219 147.59375 187.773438 145.546875 185.246094 145.546875 L 181.699219 145.546875 C 179.167969 145.546875 177.117188 147.59375 177.117188 150.117188 C 177.117188 152.644531 179.167969 154.691406 181.699219 154.691406 L 185.246094 154.691406 "/>
<g clip-path="url(#clip1)" clip-rule="nonzero">
<path style=" stroke:none;fill-rule:nonzero;fill:rgb(6.269836%,5.879211%,5.099487%);fill-opacity:1;" d="M 241.132812 240.660156 L 125.289062 240.660156 L 119.335938 184.917969 L 247.085938 184.917969 Z M 227.792969 365.632812 L 138.628906 365.632812 L 134.488281 326.832031 L 219.738281 326.832031 C 222.265625 326.832031 224.316406 324.785156 224.316406 322.261719 C 224.316406 319.738281 222.265625 317.691406 219.738281 317.691406 L 133.511719 317.691406 L 126.265625 249.800781 L 240.15625 249.800781 Z M 161.386719 91.96875 C 163.824219 91.300781 165.257812 88.785156 164.585938 86.351562 C 163.914062 83.917969 161.398438 82.492188 158.957031 83.15625 C 140.394531 88.246094 108.867188 103.195312 102.675781 146.277344 C 97.355469 148.089844 93.511719 153.113281 93.511719 159.03125 L 93.511719 180.347656 C 93.511719 182.871094 95.5625 184.917969 98.089844 184.917969 L 110.128906 184.917969 L 129.957031 370.6875 C 130.207031 373.011719 132.171875 374.773438 134.511719 374.773438 L 231.910156 374.773438 C 234.25 374.773438 236.214844 373.011719 236.464844 370.6875 L 256.292969 184.917969 L 268.332031 184.917969 C 270.859375 184.917969 272.910156 182.871094 272.910156 180.347656 L 272.910156 159.03125 C 272.910156 153.121094 269.074219 148.09375 263.761719 146.285156 C 258.804688 111.71875 237.675781 95.410156 220.527344 87.792969 C 207.179688 81.863281 194.410156 80.238281 187.789062 79.800781 L 187.789062 39.226562 C 187.789062 35.871094 189.21875 32.648438 191.710938 30.390625 L 215.777344 8.605469 C 217.652344 6.90625 217.792969 4.019531 216.09375 2.148438 C 214.394531 0.28125 211.496094 0.140625 209.625 1.835938 L 185.558594 23.621094 C 181.15625 27.605469 178.632812 33.296875 178.632812 39.226562 L 178.632812 101.984375 C 178.632812 104.507812 180.683594 106.554688 183.210938 106.554688 C 185.738281 106.554688 187.789062 104.507812 187.789062 101.984375 L 187.789062 88.972656 C 193.886719 89.4375 205.363281 91.007812 217.085938 96.269531 C 237.96875 105.648438 250.488281 122.214844 254.375 145.546875 L 203.535156 145.546875 C 201.007812 145.546875 198.957031 147.59375 198.957031 150.117188 C 198.957031 152.644531 201.007812 154.691406 203.535156 154.691406 L 259.402344 154.691406 C 261.800781 154.691406 263.75 156.636719 263.75 159.03125 L 263.75 175.777344 L 102.671875 175.777344 L 102.671875 159.03125 C 102.671875 156.636719 104.617188 154.691406 107.019531 154.691406 L 162.863281 154.691406 C 165.390625 154.691406 167.445312 152.644531 167.445312 150.117188 C 167.445312 147.59375 165.390625 145.546875 162.863281 145.546875 L 112.058594 145.546875 C 117.839844 111.03125 141.800781 97.339844 161.386719 91.96875 "/>
</g>
<path style=" stroke:none;fill-rule:nonzero;fill:rgb(6.269836%,5.879211%,5.099487%);fill-opacity:1;" d="M 135.703125 217.742188 C 137.90625 217.585938 140.207031 217.53125 142.53125 217.589844 C 142.570312 217.589844 142.605469 217.589844 142.640625 217.589844 C 142.648438 217.589844 142.640625 217.589844 142.660156 217.589844 C 142.949219 217.589844 155.839844 217.640625 172.226562 222.828125 C 178.019531 224.664062 184.003906 225.578125 189.945312 225.578125 C 197.035156 225.578125 204.054688 224.273438 210.609375 221.6875 C 218 218.769531 225.546875 216.441406 233.035156 214.777344 C 235.503906 214.226562 237.058594 211.78125 236.507812 209.320312 C 235.957031 206.859375 233.507812 205.304688 231.042969 205.855469 C 223.085938 207.625 215.078125 210.09375 207.238281 213.191406 C 197.148438 217.175781 185.695312 217.503906 174.996094 214.117188 C 157.601562 208.609375 143.914062 208.453125 142.695312 208.449219 C 140.101562 208.394531 137.523438 208.449219 135.046875 208.625 C 132.527344 208.804688 130.628906 210.992188 130.808594 213.507812 C 130.988281 216.023438 133.15625 217.917969 135.703125 217.742188 "/>
</g>
</svg>
